<?xml version="1.0" encoding="utf-8"?>
<!-- Svg Vector Icons : http://www.sfont.cn -->
<!DOCTYPE svg PUBLIC "-//W3C//DTD SVG 1.1//EN" "http://www.w3.org/Graphics/SVG/1.1/DTD/svg11.dtd">
<svg version="1.1" xmlns="http://www.w3.org/2000/svg" xmlns:xlink="http://www.w3.org/1999/xlink" x="0px" y="0px" viewBox="0 0 1000 1000" enable-background="new 0 0 1000 1000" xml:space="preserve">
<metadata> Svg Vector Icons : http://www.sfont.cn </metadata>
<g><path d="M843.4,593.6c54.4,14.8,116.2-44.5,138.5-131c22.3-86.5-2.5-168.1-56.9-183c-54.4-14.8-116.2,44.5-138.5,131C764.3,497.1,789,578.7,843.4,593.6L843.4,593.6z M383.5,373.5c54.4-9.9,89-86.5,74.2-175.5c-14.8-89-69.2-153.3-126.1-143.4c-54.4,9.9-89,86.5-74.2,175.5S329.1,383.4,383.5,373.5L383.5,373.5z M161,591.1c54.4-14.8,76.6-96.4,51.9-183c-24.7-86.5-89-143.4-140.9-128.6C17.6,294.4-4.7,376,20,462.5C44.8,551.5,106.6,608.4,161,591.1L161,591.1z M620.9,373.5c54.4,7.4,111.3-56.9,123.6-145.9c12.4-89-22.3-165.7-76.6-173.1c-54.4-7.4-111.3,56.9-123.6,145.9C529.4,289.4,564,366.1,620.9,373.5L620.9,373.5z M304.4,605.9c69.2-91.5,79.1-183,197.8-183c140.9,0,150.8,111.3,202.7,183c51.9,71.7,239.8,123.6,148.3,274.4c-89,148.4-242.3-22.3-351.1-22.3c-108.8,0-276.9,183-353.6,22.3C67,719.7,220.3,714.7,304.4,605.9L304.4,605.9z"/></g>
</svg>